<?xml version="1.0" encoding="utf-8"?>
<!-- Generator: Adobe Illustrator 16.0.3, SVG Export Plug-In . SVG Version: 6.00 Build 0)  -->
<!DOCTYPE svg PUBLIC "-//W3C//DTD SVG 1.1//EN" "http://www.w3.org/Graphics/SVG/1.1/DTD/svg11.dtd" [
	<!ENTITY ns_extend "http://ns.adobe.com/Extensibility/1.0/">
	<!ENTITY ns_ai "http://ns.adobe.com/AdobeIllustrator/10.0/">
	<!ENTITY ns_graphs "http://ns.adobe.com/Graphs/1.0/">
	<!ENTITY ns_vars "http://ns.adobe.com/Variables/1.0/">
	<!ENTITY ns_imrep "http://ns.adobe.com/ImageReplacement/1.0/">
	<!ENTITY ns_sfw "http://ns.adobe.com/SaveForWeb/1.0/">
	<!ENTITY ns_custom "http://ns.adobe.com/GenericCustomNamespace/1.0/">
	<!ENTITY ns_adobe_xpath "http://ns.adobe.com/XPath/1.0/">
]>
<svg version="1.1" id="Capa_1" xmlns:x="&ns_extend;" xmlns:i="&ns_ai;" xmlns:graph="&ns_graphs;"
	 xmlns="http://www.w3.org/2000/svg" xmlns:xlink="http://www.w3.org/1999/xlink" x="0px" y="0px" width="900px" height="900px"
	 viewBox="0 0 900 900" enable-background="new 0 0 900 900" xml:space="preserve">
<metadata>
	<sfw  xmlns="&ns_sfw;">
		<slices></slices>
		<sliceSourceBounds  y="-888.006" x="12.005" width="875.991" height="876.013" bottomLeftOrigin="true"></sliceSourceBounds>
	</sfw>
</metadata>
<g>
	<path fill="#36F136" d="M887.996,450H12.005c0-241.903,196.104-438.006,437.986-438.006
		C691.893,11.993,887.996,208.097,887.996,450z"/>
	<path fill="#55DCF2" d="M449.991,888.006C208.108,888.006,12.005,691.902,12.005,450h875.991
		C887.996,691.902,691.892,888.006,449.991,888.006z"/>
	<path fill="none" d="M449.991,888.006C208.108,888.006,12.005,691.902,12.005,450S208.108,11.993,449.991,11.993
		c241.902,0,438.005,196.104,438.005,438.006S691.892,888.006,449.991,888.006z"/>
</g>
</svg>
