<svg xmlns="http://www.w3.org/2000/svg" viewBox="0 0 488.9 488.9"><path d="M447.3 241.6c-9.6 10.4-25.6 26.1-47 41.5-48.6 35.1-101 52.8-155.8 52.8-54.8 0-107.2-17.8-155.8-52.8-21.5-15.5-37.4-31.1-47-41.5H.1c.3 3 1.4 5.8 3.3 8.3.8 1.1 18.1 24 49.8 49.5l-23 46.1c-4.3 8.5-.8 18.8 7.7 23.1 2.5 1.2 5.1 1.8 7.7 1.8 6.3 0 12.4-3.5 15.4-9.5L81.5 320c17.5 11.5 35.7 21 54.3 28.7l-20.4 40.8c-4.3 8.5-.8 18.8 7.7 23.1 2.5 1.2 5.1 1.8 7.7 1.8 6.3 0 12.4-3.5 15.4-9.5l22.4-44.9c19.3 5.4 38.8 8.7 58.6 10v40c0 9.5 7.7 17.2 17.2 17.2s17.2-7.7 17.2-17.2v-40.1c19.7-1.2 39.3-4.6 58.6-10l22.4 44.9c3 6 9.1 9.5 15.4 9.5 2.6 0 5.2-.6 7.7-1.8 8.5-4.3 12-14.6 7.7-23.1L353 348.7c18.6-7.6 36.8-17.2 54.3-28.7l20.5 40.9c3 6 9.1 9.5 15.4 9.5 2.6 0 5.2-.6 7.7-1.8 8.5-4.3 12-14.6 7.7-23.1l-23-46.1c31.7-25.6 49-48.4 49.8-49.5 1.9-2.5 3-5.4 3.3-8.3h-41.4z" fill="#212121"/></svg>